<svg width="46" height="46" viewBox="0 0 46 46" fill="none" xmlns="http://www.w3.org/2000/svg">
<circle cx="23" cy="23" r="23" fill="white"/>
<path fill-rule="evenodd" clip-rule="evenodd" d="M27.9159 18.3841C28.1057 18.574 28.2124 18.8315 28.2124 19.0999C28.2124 19.3684 28.1057 19.6259 27.9159 19.8158L20.5318 27.1999C20.152 27.5796 19.637 27.7928 19.1001 27.7928C18.5631 27.7928 18.0482 27.5796 17.6684 27.1999L14.3343 23.8658C14.2375 23.7724 14.1604 23.6606 14.1073 23.5371C14.0543 23.4136 14.0264 23.2807 14.0252 23.1463C14.024 23.0118 14.0496 22.8785 14.1005 22.7541C14.1515 22.6297 14.2266 22.5166 14.3217 22.4215C14.4168 22.3265 14.5298 22.2513 14.6542 22.2004C14.7787 22.1495 14.912 22.1239 15.0464 22.125C15.1809 22.1262 15.3137 22.1541 15.4373 22.2072C15.5608 22.2603 15.6725 22.3374 15.7659 22.4341L19.1001 25.7683L26.4843 18.3841C26.6741 18.1943 26.9316 18.0876 27.2001 18.0876C27.4686 18.0876 27.7261 18.1943 27.9159 18.3841ZM33.9909 18.3841C34.1807 18.574 34.2874 18.8315 34.2874 19.0999C34.2874 19.3684 34.1807 19.6259 33.9909 19.8158L25.8909 27.9158C25.7 28.1002 25.4442 28.2023 25.1787 28.1999C24.9133 28.1976 24.6593 28.0912 24.4716 27.9034C24.2839 27.7157 24.1774 27.4618 24.1751 27.1963C24.1728 26.9308 24.2748 26.6751 24.4593 26.4841L32.5592 18.3841C32.7491 18.1943 33.0066 18.0876 33.2751 18.0876C33.5436 18.0876 33.8011 18.1943 33.9909 18.3841V18.3841Z" fill="black"/>
</svg>
