<svg width="522" height="129" viewBox="0 0 522 129" fill="none" xmlns="http://www.w3.org/2000/svg">
<path d="M463.56 30.7989H331.786C324.411 30.7989 318.432 36.7742 318.432 44.1451V83.9631C318.432 91.334 324.411 97.3093 331.786 97.3093H463.56C470.935 97.3093 476.914 91.334 476.914 83.9631V44.1451C476.914 36.7742 470.935 30.7989 463.56 30.7989Z" fill="black" stroke="black" stroke-width="0.646474"/>
<path d="M42.3661 80.4045V46.0737H52.0625C55.0508 46.0737 57.6931 46.7339 59.9894 48.0543C62.2857 49.3747 64.0551 51.2532 65.2976 53.6896C66.5558 56.1261 67.1928 58.9242 67.2085 62.0837V64.2766C67.2085 67.5147 66.5794 70.3521 65.3212 72.7885C64.0786 75.225 62.2935 77.0956 59.9658 78.4003C57.6538 79.705 54.9564 80.3731 51.8737 80.4045H42.3661ZM46.8958 49.7991V76.7026H51.6614C55.153 76.7026 57.8661 75.618 59.8006 73.4488C61.7509 71.2795 62.726 68.1907 62.726 64.1823V62.178C62.726 58.2797 61.806 55.2537 59.9658 53.1002C58.1413 50.9309 55.5462 49.8306 52.1804 49.7991H46.8958Z" fill="black"/>
<path d="M89.1491 77.8816C87.4504 79.8779 84.9576 80.8761 81.6704 80.8761C78.9495 80.8761 76.8734 80.0901 75.4421 78.5182C74.0266 76.9306 73.311 74.5884 73.2953 71.4917V54.8922H77.6598V71.3738C77.6598 75.2408 79.2326 77.1742 82.3782 77.1742C85.7125 77.1742 87.9302 75.9324 89.0311 73.4488V54.8922H93.3956V80.4045H89.2434L89.1491 77.8816Z" fill="black"/>
<path d="M110.287 77.3157C111.845 77.3157 113.205 76.8441 114.369 75.901C115.533 74.9578 116.178 73.7789 116.303 72.3641H120.432C120.353 73.826 119.85 75.2172 118.922 76.5376C117.994 77.858 116.752 78.9112 115.195 79.6972C113.653 80.4831 112.018 80.8761 110.287 80.8761C106.812 80.8761 104.043 79.7207 101.983 77.41C99.9385 75.0836 98.9162 71.9083 98.9162 67.8841V67.1532C98.9162 64.6695 99.3723 62.461 100.284 60.5275C101.197 58.5941 102.502 57.0929 104.201 56.024C105.915 54.955 107.936 54.4206 110.264 54.4206C113.126 54.4206 115.501 55.2773 117.389 56.9907C119.292 58.7041 120.306 60.9284 120.432 63.6635H116.303C116.178 62.013 115.549 60.6611 114.416 59.6079C113.299 58.539 111.915 58.0046 110.264 58.0046C108.046 58.0046 106.324 58.8063 105.097 60.4096C103.886 61.9973 103.281 64.3001 103.281 67.3182V68.1435C103.281 71.083 103.886 73.3466 105.097 74.9342C106.308 76.5219 108.038 77.3157 110.287 77.3157Z" fill="black"/>
<path d="M132.464 68.5915L129.727 71.4446V80.4045H125.363V44.1873H129.727V66.0921L132.063 63.2863L140.013 54.8922H145.322L135.389 65.5498L146.478 80.4045H141.358L132.464 68.5915Z" fill="black"/>
<path d="M162.497 80.4045V46.0737H172.193C175.181 46.0737 177.824 46.7339 180.12 48.0543C182.416 49.3747 184.185 51.2532 185.428 53.6896C186.686 56.1261 187.323 58.9242 187.339 62.0837V64.2766C187.339 67.5147 186.71 70.3521 185.452 72.7885C184.209 75.225 182.424 77.0956 180.096 78.4003C177.784 79.705 175.087 80.3731 172.004 80.4045H162.497ZM167.026 49.7991V76.7026H171.792C175.283 76.7026 177.997 75.618 179.931 73.4488C181.881 71.2795 182.856 68.1907 182.856 64.1823V62.178C182.856 58.2797 181.936 55.2537 180.096 53.1002C178.272 50.9309 175.677 49.8306 172.311 49.7991H167.026Z" fill="black"/>
<path d="M209.279 77.8816C207.581 79.8779 205.088 80.8761 201.801 80.8761C199.08 80.8761 197.004 80.0901 195.573 78.5182C194.157 76.9306 193.441 74.5884 193.426 71.4917V54.8922H197.79V71.3738C197.79 75.2408 199.363 77.1742 202.509 77.1742C205.843 77.1742 208.061 75.9324 209.162 73.4488V54.8922H213.526V80.4045H209.374L209.279 77.8816Z" fill="black"/>
<path d="M230.418 77.3157C231.975 77.3157 233.335 76.8441 234.499 75.901C235.663 74.9578 236.308 73.7789 236.434 72.3641H240.562C240.484 73.826 239.981 75.2172 239.053 76.5376C238.125 77.858 236.882 78.9112 235.325 79.6972C233.784 80.4831 232.148 80.8761 230.418 80.8761C226.942 80.8761 224.174 79.7207 222.114 77.41C220.069 75.0836 219.047 71.9083 219.047 67.8841V67.1532C219.047 64.6695 219.503 62.461 220.415 60.5275C221.327 58.5941 222.633 57.0929 224.331 56.024C226.046 54.955 228.067 54.4206 230.394 54.4206C233.257 54.4206 235.632 55.2773 237.519 56.9907C239.422 58.7041 240.437 60.9284 240.562 63.6635H236.434C236.308 62.013 235.679 60.6611 234.547 59.6079C233.43 58.539 232.046 58.0046 230.394 58.0046C228.177 58.0046 226.454 58.8063 225.228 60.4096C224.017 61.9973 223.411 64.3001 223.411 67.3182V68.1435C223.411 71.083 224.017 73.3466 225.228 74.9342C226.439 76.5219 228.169 77.3157 230.418 77.3157Z" fill="black"/>
<path d="M252.594 68.5915L249.858 71.4446V80.4045H245.493V44.1873H249.858V66.0921L252.193 63.2863L260.144 54.8922H265.452L255.52 65.5498L266.608 80.4045H261.489L252.594 68.5915Z" fill="black"/>
<path d="M335.603 66.9646V80.4045H331.074V46.0737H343.743C347.502 46.0737 350.443 47.0325 352.566 48.9503C354.705 50.868 355.774 53.4067 355.774 56.5663C355.774 59.8988 354.729 62.4689 352.637 64.2766C350.561 66.0686 347.58 66.9646 343.695 66.9646H335.603ZM335.603 63.2627H343.743C346.165 63.2627 348.021 62.6968 349.31 61.565C350.6 60.4175 351.245 58.767 351.245 56.6134C351.245 54.5699 350.6 52.9351 349.31 51.709C348.021 50.4829 346.251 49.8463 344.002 49.7991H335.603V63.2627Z" fill="white"/>
<path d="M376.347 80.4045C376.095 79.9015 375.891 79.0055 375.733 77.7165C373.704 79.8229 371.282 80.8761 368.467 80.8761C365.951 80.8761 363.882 80.1687 362.262 78.754C360.658 77.3236 359.856 75.5158 359.856 73.3309C359.856 70.6743 360.862 68.6151 362.876 67.1532C364.905 65.6756 367.751 64.9368 371.416 64.9368H375.663V62.9326C375.663 61.4078 375.206 60.1974 374.294 59.3014C373.382 58.3897 372.037 57.9339 370.26 57.9339C368.703 57.9339 367.397 58.3268 366.344 59.1128C365.29 59.8988 364.763 60.8498 364.763 61.9658H360.375C360.375 60.6926 360.823 59.4665 361.72 58.2875C362.632 57.0929 363.859 56.1497 365.4 55.4581C366.957 54.7664 368.664 54.4206 370.519 54.4206C373.461 54.4206 375.765 55.1594 377.432 56.637C379.099 58.0989 379.964 60.1188 380.027 62.6968V74.4391C380.027 76.7812 380.326 78.644 380.924 80.0273V80.4045H376.347ZM369.104 77.0799C370.472 77.0799 371.77 76.7262 372.997 76.0189C374.223 75.3115 375.112 74.3919 375.663 73.2601V68.0256H372.242C366.894 68.0256 364.22 69.5897 364.22 72.7178C364.22 74.0854 364.677 75.1543 365.589 75.9245C366.501 76.6948 367.673 77.0799 369.104 77.0799Z" fill="white"/>
<path d="M392.79 48.7145V54.8922H397.556V58.264H392.79V74.0854C392.79 75.1071 393.003 75.8774 393.427 76.3961C393.852 76.8991 394.575 77.1506 395.598 77.1506C396.101 77.1506 396.793 77.0563 397.674 76.8677V80.4045C396.526 80.7189 395.409 80.8761 394.324 80.8761C392.374 80.8761 390.903 80.2866 389.912 79.1077C388.921 77.9288 388.426 76.2546 388.426 74.0854V58.264H383.778V54.8922H388.426V48.7145H392.79Z" fill="white"/>
<path d="M413.268 80.8761C409.808 80.8761 406.993 79.7443 404.822 77.4808C402.652 75.2015 401.567 72.1598 401.567 68.3557V67.554C401.567 65.0232 402.046 62.7675 403.006 60.7869C403.981 58.7906 405.333 57.2343 407.063 56.1183C408.809 54.9865 410.697 54.4206 412.726 54.4206C416.044 54.4206 418.624 55.5131 420.464 57.6981C422.304 59.883 423.224 63.0112 423.224 67.0825V68.898H405.931C405.994 71.4131 406.725 73.4488 408.125 75.005C409.541 76.5455 411.334 77.3157 413.504 77.3157C415.045 77.3157 416.351 77.0013 417.42 76.3725C418.49 75.7438 419.426 74.9107 420.228 73.8732L422.894 75.9481C420.755 79.2335 417.546 80.8761 413.268 80.8761ZM412.726 58.0046C410.964 58.0046 409.486 58.6491 408.29 59.9381C407.095 61.2113 406.356 63.0033 406.073 65.314H418.859V64.9839C418.734 62.7675 418.136 61.0541 417.067 59.8437C415.997 58.6176 414.55 58.0046 412.726 58.0046Z" fill="white"/>
<path d="M432.425 54.8922L432.566 58.0989C434.517 55.6467 437.065 54.4206 440.21 54.4206C445.605 54.4206 448.326 57.4623 448.373 63.5456V80.4045H444.009V63.522C443.993 61.6829 443.568 60.3232 442.735 59.4429C441.917 58.5626 440.635 58.1225 438.889 58.1225C437.474 58.1225 436.231 58.4997 435.162 59.2543C434.092 60.0088 433.258 60.9991 432.661 62.2252V80.4045H428.296V54.8922H432.425Z" fill="white"/>
<path d="M460.877 48.7145V54.8922H465.642V58.264H460.877V74.0854C460.877 75.1071 461.089 75.8774 461.514 76.3961C461.938 76.8991 462.662 77.1506 463.684 77.1506C464.188 77.1506 464.88 77.0563 465.76 76.8677V80.4045C464.612 80.7189 463.496 80.8761 462.41 80.8761C460.46 80.8761 458.989 80.2866 457.999 79.1077C457.008 77.9288 456.512 76.2546 456.512 74.0854V58.264H451.865V54.8922H456.512V48.7145H460.877Z" fill="white"/>
<path d="M286.289 53.2481C287.329 54.5774 290.177 57.04 289.219 58.1011" stroke="black" stroke-width="0.9"/>
<path d="M300.635 53.7418C299.023 55.421 296.561 57.4397 297.631 58.1226" stroke="black" stroke-width="0.9"/>
<path d="M288.302 49.0865C289.634 49.8553 296.928 50.1056 298.172 49.1022C304.552 44.7145 303.388 44.7362 299.522 45.5667C296.148 44.9035 291.074 45.0407 287.387 45.7438C283.434 44.7504 282.934 44.6487 288.302 49.0865Z" stroke="black" stroke-width="0.4"/>
<path d="M297.308 40.9369C299.233 40.9369 300.793 39.7325 300.793 38.2467C300.793 36.761 299.233 35.5565 297.308 35.5565C295.384 35.5565 293.823 36.761 293.823 38.2467C293.823 39.7325 295.384 40.9369 297.308 40.9369Z" stroke="black" stroke-width="0.4"/>
<path d="M297.308 38.8853C297.739 38.8853 298.089 38.5896 298.089 38.2248C298.089 37.8601 297.739 37.5644 297.308 37.5644C296.877 37.5644 296.528 37.8601 296.528 38.2248C296.528 38.5896 296.877 38.8853 297.308 38.8853Z" fill="black" stroke="black" stroke-width="0.301"/>
<path d="M290.356 40.9369C292.281 40.9369 293.841 39.7325 293.841 38.2467C293.841 36.761 292.281 35.5565 290.356 35.5565C288.432 35.5565 286.871 36.761 286.871 38.2467C286.871 39.7325 288.432 40.9369 290.356 40.9369Z" stroke="black" stroke-width="0.4"/>
<path d="M290.356 38.9072C290.787 38.9072 291.137 38.6115 291.137 38.2468C291.137 37.882 290.787 37.5863 290.356 37.5863C289.925 37.5863 289.576 37.882 289.576 38.2468C289.576 38.6115 289.925 38.9072 290.356 38.9072Z" fill="black" stroke="black" stroke-width="0.301"/>
<path d="M287.146 46.7694C294.389 48.264 292.376 47.8864 299.741 46.6848" stroke="black" stroke-width="0.4" stroke-linecap="round"/>
<path d="M286.289 53.248C263.716 20.3777 324.986 21.1322 300.635 53.7417" stroke="black" stroke-width="0.9" stroke-linecap="round"/>
<path d="M284.563 63.946C268.063 89.2866 319.567 89.5682 302.242 63.8218" stroke="black" stroke-width="0.9"/>
<path d="M289.22 58.101C289.211 58.1102 289.203 58.1193 289.194 58.1284" stroke="black" stroke-width="0.301001"/>
<path d="M289.219 58.101C281.585 53.9667 278.627 67.5497 281.16 72.5194" stroke="black" stroke-width="0.9" stroke-linecap="round"/>
<path d="M297.631 58.1225C305.265 53.9882 308.223 67.5711 305.69 72.5408" stroke="black" stroke-width="0.9" stroke-linecap="round"/>
<path d="M288.712 82.175L288.394 90.387C288.394 90.387 285.496 92.4079 284.844 92.9339C284.13 93.5101 286.929 94.5008 286.929 94.5008C288.57 94.5295 288.19 94.4124 289.831 94.4411C291.199 94.1156 292.961 93.2543 291.85 92.3626L289.347 90.5949L289.744 82.3668" stroke="black" stroke-width="0.9"/>
<path d="M289.154 91.9825L289.831 94.4412" stroke="black" stroke-width="0.4"/>
<path d="M288.131 92.0658L287.228 94.1416" stroke="black" stroke-width="0.4"/>
<path d="M297.404 82.3416L297.722 90.5536C297.722 90.5536 300.619 92.5745 301.271 93.1004C301.986 93.6767 299.186 94.6673 299.186 94.6673C297.545 94.6961 297.926 94.579 296.284 94.6077C294.916 94.2822 293.155 93.4209 294.266 92.5292L296.769 90.7615L296.371 82.5334" stroke="black" stroke-width="0.9"/>
<path d="M296.961 92.149L296.284 94.6077" stroke="black" stroke-width="0.4"/>
<path d="M297.984 92.2325L298.887 94.3082" stroke="black" stroke-width="0.4"/>
<path d="M293.99 29.2355C294.397 28.0334 294.274 25.0905 295.255 25.4763C296.289 26.0618 294.758 28.2735 293.99 29.2355Z" stroke="black" stroke-width="0.4"/>
<path d="M295.256 25.4764L293.991 29.2355L292.85 29.2001" stroke="black" stroke-width="0.4"/>
<path d="M293.435 28.8328C292.798 27.1893 289.968 24.2975 291.433 23.7027C293.141 23.2592 293.426 27.0719 293.435 28.8328Z" stroke="black" stroke-width="0.4"/>
<path d="M291.435 23.7018L293.436 28.8317L293.907 29.3167" stroke="black" stroke-width="0.4"/>
</svg>
