<svg width="55" height="55" viewBox="0 0 56 56" fill="none" xmlns="http://www.w3.org/2000/svg">
<circle cx="23" cy="23" r="25" fill="white"/>
<path fill-rule="evenodd" clip-rule="evenodd" d="M29.3572 17.7996C29.547 17.9895 29.6537 18.247 29.6537 18.5155C29.6537 18.784 29.547 19.0415 29.3572 19.2314L21.9725 26.6162C21.5927 26.9958 21.0777 27.2091 20.5407 27.2091C20.0037 27.2091 19.4887 26.9958 19.1089 26.6162L15.7745 23.2817C15.6777 23.1883 15.6006 23.0766 15.5475 22.9531C15.4945 22.8295 15.4665 22.6967 15.4654 22.5622C15.4642 22.4278 15.4898 22.2944 15.5407 22.17C15.5916 22.0455 15.6668 21.9325 15.7619 21.8374C15.857 21.7423 15.97 21.6671 16.0945 21.6162C16.2189 21.5653 16.3523 21.5397 16.4867 21.5409C16.6212 21.542 16.754 21.57 16.8776 21.623C17.0011 21.6761 17.1128 21.7532 17.2062 21.85L20.5407 25.1844L27.9254 17.7996C28.1153 17.6098 28.3728 17.5032 28.6413 17.5032C28.9098 17.5032 29.1673 17.6098 29.3572 17.7996Z" fill="black"/>
</svg>
