<svg width="159" height="159" viewBox="0 0 159 159" fill="none" xmlns="http://www.w3.org/2000/svg">
<rect width="159" height="159" rx="20" fill="black"/>
<path d="M63.3498 65.3878C65.4841 68.1185 71.3312 73.177 69.366 75.3567" stroke="white" stroke-width="2"/>
<path d="M92.8031 66.4019C89.4921 69.8513 84.4385 73.9981 86.6344 75.4008" stroke="white" stroke-width="2"/>
<path d="M67.482 56.8393C70.2163 58.4186 85.1912 58.9326 87.7454 56.8716C100.845 47.8584 98.4545 47.9031 90.5165 49.6091C83.5907 48.2467 73.1736 48.5286 65.603 49.9728C57.4892 47.9323 56.4612 47.7233 67.482 56.8393Z" stroke="white" stroke-width="0.7"/>
<path d="M85.9725 40.0987C89.924 40.0987 93.1272 37.6246 93.1272 34.5726C93.1272 31.5206 89.924 29.0464 85.9725 29.0464C82.0211 29.0464 78.8179 31.5206 78.8179 34.5726C78.8179 37.6246 82.0211 40.0987 85.9725 40.0987Z" stroke="white" stroke-width="0.7"/>
<path d="M85.9726 35.8843C86.8577 35.8843 87.5753 35.2769 87.5753 34.5276C87.5753 33.7783 86.8577 33.1709 85.9726 33.1709C85.0874 33.1709 84.3698 33.7783 84.3698 34.5276C84.3698 35.2769 85.0874 35.8843 85.9726 35.8843Z" fill="white" stroke="white" stroke-width="0.301"/>
<path d="M71.6998 40.0987C75.6512 40.0987 78.8545 37.6246 78.8545 34.5726C78.8545 31.5206 75.6512 29.0464 71.6998 29.0464C67.7484 29.0464 64.5451 31.5206 64.5451 34.5726C64.5451 37.6246 67.7484 40.0987 71.6998 40.0987Z" stroke="white" stroke-width="0.7"/>
<path d="M71.6997 35.9294C72.5849 35.9294 73.3025 35.3219 73.3025 34.5727C73.3025 33.8234 72.5849 33.2159 71.6997 33.2159C70.8146 33.2159 70.097 33.8234 70.097 34.5727C70.097 35.3219 70.8146 35.9294 71.6997 35.9294Z" fill="white" stroke="white" stroke-width="0.301"/>
<path d="M65.1085 52.0796C79.9789 55.1496 75.8466 54.3741 90.9669 51.9058" stroke="white" stroke-width="0.7" stroke-linecap="round"/>
<path d="M63.3497 65.3877C17.0074 -2.13342 142.796 -0.583483 92.8031 66.4018" stroke="white" stroke-width="2" stroke-linecap="round"/>
<path d="M59.8066 87.3632C25.9305 139.417 131.67 139.995 96.1024 87.108" stroke="white" stroke-width="2"/>
<path d="M69.3656 75.3566C69.3488 75.375 69.3315 75.3932 69.3144 75.4115" stroke="white" stroke-width="0.7"/>
<path d="M69.3657 75.3566C53.6914 66.8641 47.6201 94.7657 52.8205 104.974" stroke="white" stroke-width="2" stroke-linecap="round"/>
<path d="M86.6343 75.4006C102.309 66.9081 108.38 94.8096 103.179 105.018" stroke="white" stroke-width="2" stroke-linecap="round"/>
<path d="M68.3233 124.808L67.6703 141.677C67.6703 141.677 61.7224 145.829 60.3836 146.909C58.9166 148.093 64.6634 150.128 64.6634 150.128C68.0333 150.187 67.2519 149.946 70.6218 150.005C73.4303 149.336 77.0471 147.567 74.7657 145.736L69.6274 142.104L70.4429 125.203" stroke="white" stroke-width="0.7"/>
<path d="M69.2321 144.955L70.6221 150.005" stroke="white" stroke-width="0.5"/>
<path d="M67.1317 145.126L65.2779 149.39" stroke="white" stroke-width="0.5"/>
<path d="M86.1684 125.151L86.8215 142.019C86.8215 142.019 92.7694 146.171 94.1082 147.251C95.5752 148.435 89.8284 150.47 89.8284 150.47C86.4585 150.529 87.2399 150.288 83.87 150.347C81.0615 149.679 77.4447 147.909 79.7261 146.078L84.8644 142.447L84.0488 125.545" stroke="white" stroke-width="0.7"/>
<path d="M85.2599 145.297L83.8699 150.347" stroke="white" stroke-width="0.5"/>
<path d="M87.3603 145.468L89.2141 149.732" stroke="white" stroke-width="0.5"/>
<path d="M79.1606 16.061C79.997 13.5917 79.7421 7.54652 81.7574 8.33939C83.8813 9.54242 80.7369 14.0851 79.1606 16.061Z" stroke="white"/>
<path d="M81.7594 8.34027L79.1627 16.0619L76.8194 15.9887" stroke="white"/>
<path d="M78.0203 15.2338C76.713 11.858 70.9031 5.91851 73.9114 4.69622C77.4174 3.78471 78.0022 11.6166 78.0203 15.2338Z" stroke="white"/>
<path d="M73.9143 4.69507L78.0232 15.2326L78.9894 16.2288" stroke="white"/>
</svg>
